<svg width="172" height="172" viewBox="0 0 172 172" fill="none" xmlns="http://www.w3.org/2000/svg">
<rect x="24" y="28" width="124" height="104" rx="12.381" fill="white"/>
<rect x="50" y="50" width="72" height="72" rx="12" fill="#F2F2F2"/>
<circle cx="112" cy="64" r="36" fill="url(#paint0_linear_1572_48148)"/>
<circle cx="54" cy="116" r="16" fill="url(#paint1_linear_1572_48148)"/>
<g opacity="0.16" filter="url(#filter0_f_1572_48148)">
<circle cx="86" cy="86" r="36" fill="#959599"/>
</g>
<!-- <circle cx="73.3806" cy="77.9997" r="14.8571" fill="white"/> -->
<g filter="url(#filter1_b_1572_48148)">
<rect x="50" y="50" width="72" height="72" rx="8" fill="url(#paint2_linear_1572_48148)"/>
<path fill-rule="evenodd" clip-rule="evenodd" d="M73.3639 75.333H70V97.1637H73.3639C79.6458 97.1637 84.7658 92.261 84.7658 86.2483C84.7658 80.2347 79.6447 75.333 73.3639 75.333ZM98.3898 97.1637H101.754V75.333H98.3898C92.1089 75.333 86.9879 80.2357 86.9879 86.2483C86.9879 92.262 92.1089 97.1637 98.3898 97.1637Z" fill="white"/>
<!-- <rect x="51" y="51" width="70" height="70" rx="7" stroke="url(#paint3_linear_1572_48148)" stroke-width="2"/> -->
</g>
<defs>
<filter id="filter0_f_1572_48148" x="0.476189" y="0.476189" width="171.048" height="171.048" filterUnits="userSpaceOnUse" color-interpolation-filters="sRGB">
<feFlood flood-opacity="0" result="BackgroundImageFix"/>
<feBlend mode="normal" in="SourceGraphic" in2="BackgroundImageFix" result="shape"/>
<feGaussianBlur stdDeviation="24.7619" result="effect1_foregroundBlur_1572_48148"/>
</filter>
<filter id="filter1_b_1572_48148" x="20.2857" y="20.2857" width="131.429" height="131.429" filterUnits="userSpaceOnUse" color-interpolation-filters="sRGB">
<feFlood flood-opacity="0" result="BackgroundImageFix"/>
<feGaussianBlur in="BackgroundImageFix" stdDeviation="14.8571"/>
<feComposite in2="SourceAlpha" operator="in" result="effect1_backgroundBlur_1572_48148"/>
<feBlend mode="normal" in="SourceGraphic" in2="effect1_backgroundBlur_1572_48148" result="shape"/>
</filter>
<linearGradient id="paint0_linear_1572_48148" x1="68.4998" y1="19.3" x2="171.132" y2="36.826" gradientUnits="userSpaceOnUse">
<stop stop-color="#3E44FE"/>
<stop offset="1" stop-color="#BB5CFF"/>
</linearGradient>
<linearGradient id="paint1_linear_1572_48148" x1="34.6666" y1="96.1333" x2="80.2809" y2="103.923" gradientUnits="userSpaceOnUse">
<stop stop-color="#3E44FE"/>
<stop offset="1" stop-color="#BB5CFF"/>
</linearGradient>
<linearGradient id="paint2_linear_1572_48148" x1="122" y1="122" x2="50" y2="50" gradientUnits="userSpaceOnUse">
<stop stop-color="white" stop-opacity="0.4"/>
<stop offset="1" stop-color="white" stop-opacity="0.1"/>
</linearGradient>
<linearGradient id="paint3_linear_1572_48148" x1="122" y1="50" x2="50.0001" y2="118.786" gradientUnits="userSpaceOnUse">
<stop stop-color="white"/>
<stop offset="0.233042" stop-color="#8F54FF"/>
<stop offset="0.602848" stop-color="white" stop-opacity="0.5375"/>
<stop offset="1" stop-color="#9856FF" stop-opacity="0.1"/>
</linearGradient>
</defs>
</svg>
