<svg width="152" height="152" viewBox="0 0 152 152" fill="none" xmlns="http://www.w3.org/2000/svg">
<rect x="14.0001" y="18" width="124" height="104" rx="12.381" fill="#14141A"/>
<circle cx="102" cy="54" r="36" fill="url(#paint0_linear_1773_54108)"/>
<circle cx="43.6191" cy="106" r="16" fill="url(#paint1_linear_1773_54108)"/>
<g opacity="0.7" filter="url(#filter0_f_1773_54108)">
<circle cx="75.9999" cy="76" r="36" fill="#14141A"/>
</g>
<g filter="url(#filter1_b_1773_54108)">
<rect x="39.9999" y="40" width="72" height="72" rx="8" fill="url(#paint2_linear_1773_54108)"/>
<path fill-rule="evenodd" clip-rule="evenodd" d="M63.6812 60.4681C63.1208 60.9459 63.0539 61.7874 63.5316 62.3478L70.1823 70.1487V75.4932C70.1823 77.1332 70.8356 78.6932 71.9956 79.8532C73.1556 81.0132 74.7156 81.6532 76.3556 81.6665C77.4126 81.6665 78.4363 81.3951 79.3411 80.8917L81.2215 83.0972C79.8002 84.0058 78.0991 84.5065 76.3423 84.5065C74.2356 84.5065 72.2223 83.7998 70.649 82.5065C69.089 81.2265 68.089 79.4532 67.8623 77.5332C67.8223 77.2265 67.649 76.9465 67.3956 76.7598C67.129 76.5732 66.7956 76.4798 66.4623 76.5065C66.129 76.5465 65.8223 76.6932 65.609 76.9332C65.3956 77.1732 65.3023 77.4798 65.3423 77.7865C65.6223 80.1065 66.7556 82.2532 68.5556 83.8932C70.3156 85.4932 72.6223 86.5065 75.0756 86.7598V89.6665C75.0756 89.9732 75.209 90.2665 75.449 90.4932C75.689 90.7198 76.009 90.8398 76.3423 90.8398C76.6756 90.8398 77.009 90.7198 77.2356 90.4932C77.4623 90.2665 77.609 89.9732 77.609 89.6665V86.7598C79.4887 86.5668 81.2678 85.9324 82.7869 84.9333L87.5658 90.5388C88.0435 91.0991 88.8851 91.1661 89.4454 90.6884C90.0058 90.2106 90.0728 89.3691 89.595 88.8087L84.818 83.2054C86.2181 81.6731 87.0999 79.7948 87.3423 77.7865C87.3823 77.4798 87.2756 77.1732 87.0756 76.9332C86.8623 76.6932 86.5556 76.5332 86.2223 76.5065C85.889 76.4665 85.5556 76.5598 85.289 76.7598C85.0223 76.9465 84.8623 77.2265 84.8223 77.5332C84.6495 78.9154 84.0898 80.2147 83.2077 81.3166L81.339 79.1247C82.1031 78.0764 82.5182 76.8106 82.529 75.4932H82.5023V67.4932C82.5023 65.8532 81.849 64.2932 80.7023 63.1332C79.5423 61.9732 77.9823 61.3332 76.3423 61.3332C74.7023 61.3332 73.1423 61.9865 71.9823 63.1332C71.1333 63.9822 70.5628 65.0455 70.318 66.1976L65.5609 60.6177C65.0831 60.0574 64.2416 59.9904 63.6812 60.4681ZM72.5023 72.87V75.4932C72.5023 76.5065 72.9023 77.4798 73.6223 78.1998C74.3423 78.9198 75.3156 79.3198 76.329 79.3198C76.8252 79.3198 77.3118 79.2239 77.7638 79.0415L72.5023 72.87ZM79.7338 77.2419L72.5023 68.7597V67.4932C72.5023 66.4798 72.9023 65.5065 73.6223 64.7865C74.3423 64.0665 75.3156 63.6665 76.329 63.6665C77.3423 63.6665 78.3156 64.0665 79.0356 64.7865C79.7556 65.5065 80.1556 66.4798 80.1556 67.4932V75.4932C80.1556 76.1065 80.0091 76.7051 79.7338 77.2419Z" fill="white"/>
<!-- <rect x="40.9999" y="41" width="70" height="70" rx="7" stroke="url(#paint3_linear_1773_54108)" stroke-width="2"/> -->
</g>
<defs>
<filter id="filter0_f_1773_54108" x="-6.10352e-05" y="0" width="152" height="152" filterUnits="userSpaceOnUse" color-interpolation-filters="sRGB">
<feFlood flood-opacity="0" result="BackgroundImageFix"/>
<feBlend mode="normal" in="SourceGraphic" in2="BackgroundImageFix" result="shape"/>
<feGaussianBlur stdDeviation="20" result="effect1_foregroundBlur_1773_54108"/>
</filter>
<filter id="filter1_b_1773_54108" x="10.2857" y="10.2857" width="131.429" height="131.429" filterUnits="userSpaceOnUse" color-interpolation-filters="sRGB">
<feFlood flood-opacity="0" result="BackgroundImageFix"/>
<feGaussianBlur in="BackgroundImageFix" stdDeviation="14.8571"/>
<feComposite in2="SourceAlpha" operator="in" result="effect1_backgroundBlur_1773_54108"/>
<feBlend mode="normal" in="SourceGraphic" in2="effect1_backgroundBlur_1773_54108" result="shape"/>
</filter>
<linearGradient id="paint0_linear_1773_54108" x1="58.4998" y1="9.3" x2="161.132" y2="26.826" gradientUnits="userSpaceOnUse">
<stop stop-color="#3E44FE"/>
<stop offset="1" stop-color="#BB5CFF"/>
</linearGradient>
<linearGradient id="paint1_linear_1773_54108" x1="24.2857" y1="86.1333" x2="69.9" y2="93.9227" gradientUnits="userSpaceOnUse">
<stop stop-color="#3E44FE"/>
<stop offset="1" stop-color="#BB5CFF"/>
</linearGradient>
<linearGradient id="paint2_linear_1773_54108" x1="112" y1="112" x2="39.9999" y2="40" gradientUnits="userSpaceOnUse">
<stop stop-color="white" stop-opacity="0.4"/>
<stop offset="1" stop-color="white" stop-opacity="0.1"/>
</linearGradient>
<linearGradient id="paint3_linear_1773_54108" x1="112" y1="40" x2="40" y2="108.786" gradientUnits="userSpaceOnUse">
<stop stop-color="white"/>
<stop offset="0.233042" stop-color="#8F54FF"/>
<stop offset="0.602848" stop-color="white" stop-opacity="0.5375"/>
<stop offset="1" stop-color="#9856FF" stop-opacity="0.1"/>
</linearGradient>
</defs>
</svg>
