<svg width="153" height="152" viewBox="0 0 153 152" fill="none" xmlns="http://www.w3.org/2000/svg">
<rect x="16.001" y="18" width="123.998" height="104" rx="12" fill="#14141A"/>
<circle cx="103.999" cy="54" r="36" fill="url(#paint0_linear_1773_54108)"/>
<circle cx="46.001" cy="106" r="16" fill="url(#paint1_linear_1773_54108)"/>
<g opacity="0.7" filter="url(#filter0_f_1773_54108)">
<ellipse cx="76.7513" cy="76" rx="35.8735" ry="36" fill="#14141A"/>
</g>
<!-- <ellipse cx="64.1769" cy="67.9997" rx="14.8049" ry="14.8571" fill="white"/> -->
<g filter="url(#filter1_b_1773_54108)">
<rect x="41.001" y="40" width="72" height="72" rx="8" fill="url(#paint2_linear_1773_54108)"/>
<path fill-rule="evenodd" clip-rule="evenodd" d="M64.3649 65.333H61.001V87.1637H64.3649C70.6468 87.1637 75.7668 82.261 75.7668 76.2483C75.7668 70.2347 70.6457 65.333 64.3649 65.333ZM89.3907 87.1637H92.7546V65.333H89.3907C83.1099 65.333 77.9888 70.2357 77.9888 76.2483C77.9888 82.262 83.1099 87.1637 89.3907 87.1637Z" fill="white"/>
<!-- <rect x="42.001" y="41" width="70" height="70" rx="7" stroke="url(#paint3_linear_1773_54108)" stroke-width="2"/> -->
</g>
<defs>
<filter id="filter0_f_1773_54108" x="0.877808" y="0" width="151.747" height="152" filterUnits="userSpaceOnUse" color-interpolation-filters="sRGB">
<feFlood flood-opacity="0" result="BackgroundImageFix"/>
<feBlend mode="normal" in="SourceGraphic" in2="BackgroundImageFix" result="shape"/>
<feGaussianBlur stdDeviation="20" result="effect1_foregroundBlur_1773_54108"/>
</filter>
<filter id="filter1_b_1773_54108" x="11.2867" y="10.2857" width="131.429" height="131.429" filterUnits="userSpaceOnUse" color-interpolation-filters="sRGB">
<feFlood flood-opacity="0" result="BackgroundImageFix"/>
<feGaussianBlur in="BackgroundImageFix" stdDeviation="14.8571"/>
<feComposite in2="SourceAlpha" operator="in" result="effect1_backgroundBlur_1773_54108"/>
<feBlend mode="normal" in="SourceGraphic" in2="effect1_backgroundBlur_1773_54108" result="shape"/>
</filter>
<linearGradient id="paint0_linear_1773_54108" x1="60.4988" y1="9.3" x2="163.131" y2="26.826" gradientUnits="userSpaceOnUse">
<stop stop-color="#3E44FE"/>
<stop offset="1" stop-color="#BB5CFF"/>
</linearGradient>
<linearGradient id="paint1_linear_1773_54108" x1="26.6676" y1="86.1333" x2="72.2819" y2="93.9227" gradientUnits="userSpaceOnUse">
<stop stop-color="#3E44FE"/>
<stop offset="1" stop-color="#BB5CFF"/>
</linearGradient>
<linearGradient id="paint2_linear_1773_54108" x1="113.001" y1="112" x2="41.001" y2="40" gradientUnits="userSpaceOnUse">
<stop stop-color="white" stop-opacity="0.4"/>
<stop offset="1" stop-color="white" stop-opacity="0.1"/>
</linearGradient>
<linearGradient id="paint3_linear_1773_54108" x1="113.001" y1="40" x2="41.0011" y2="108.786" gradientUnits="userSpaceOnUse">
<stop stop-color="white"/>
<stop offset="0.233042" stop-color="#8F54FF"/>
<stop offset="0.602848" stop-color="white" stop-opacity="0.5375"/>
<stop offset="1" stop-color="#9856FF" stop-opacity="0.1"/>
</linearGradient>
</defs>
</svg>
